/* XPM */
static char *_a6051de99504da597d61deebddd7823gRvj9rLmrAQy7Qjo[] = {
/* columns rows colors chars-per-pixel */
"50 50 213 2 ",
"   c #C8D45D",
".  c #C2CE5C",
"X  c #BBC75A",
"o  c #B6C158",
"O  c #ADB856",
"+  c #89924D",
"@  c #6E7645",
"#  c #97A150",
"$  c #565D3F",
"%  c #262A33",
"&  c #575E40",
"*  c #81874D",
"=  c #6C6D4A",
"-  c #535245",
";  c #37383B",
":  c #1B1E31",
">  c #3A4038",
",  c #6C7445",
"<  c #929B4F",
"1  c #393F38",
"2  c #545245",
"3  c #6B6D4A",
"4  c #6B6C4A",
"5  c #98925C",
"6  c #A89F64",
"7  c #66634C",
"8  c #242734",
"9  c #242932",
"0  c #4A503C",
"q  c #252734",
"w  c #97925C",
"e  c #5B5848",
"r  c #B9AE6A",
"t  c #E7D97A",
"y  c #898358",
"u  c #2B2D36",
"i  c #19192F",
"p  c #1F1A30",
"a  c #231A30",
"s  c #2C2E37",
"d  c #8A8359",
"f  c #E8D97B",
"g  c #B8AE69",
"h  c #5A5847",
"j  c #262B33",
"k  c #6E7646",
"l  c #2B1B31",
"z  c #4A2036",
"x  c #61243A",
"c  c #3D1E34",
"v  c #74273D",
"b  c #9E2D43",
"n  c #74263C",
"m  c #5A5A51",
"M  c #B6B17F",
"N  c #E5DD96",
"B  c #888668",
"V  c #2B2E3A",
"C  c #472134",
"Z  c #8B2D3C",
"A  c #BE3641",
"S  c #595A50",
"D  c #585C5D",
"F  c #B4B69B",
"G  c #E1E3BA",
"H  c #86897C",
"J  c #2B2F3E",
"K  c #4E2432",
"L  c #9B3338",
"P  c #D53E3D",
"I  c #4E2332",
"U  c #E1E4BA",
"Y  c #B3B69B",
"T  c #585D63",
"R  c #B2B9A9",
"E  c #DFE6CC",
"W  c #858B86",
"Q  c #2B2F40",
"!  c #512532",
"~  c #A33637",
"^  c #E0433A",
"/  c #E0E7CC",
"(  c #B2B8A9",
")  c #595B57",
"_  c #B5B48D",
"`  c #E3E0A8",
"'  c #878772",
"]  c #2B2E3C",
"[  c #4A2233",
"{  c #93303A",
"}  c #C93A3F",
"|  c #5A594B",
" . c #B8AF71",
".. c #E7DA84",
"X. c #89845E",
"o. c #2B2E37",
"O. c #442035",
"+. c #832A3D",
"@. c #B33144",
"#. c #432035",
"$. c #2C2E38",
"%. c #B8AF70",
"&. c #5A594A",
"*. c #421F35",
"=. c #7F283E",
"-. c #AD2F45",
";. c #9F2D43",
":. c #8D2A40",
">. c #62243A",
",. c #7B2D42",
"<. c #4D2E41",
"1. c #2B2F41",
"2. c #602339",
"3. c #6B4352",
"4. c #7A6C73",
"5. c #858C8B",
"6. c #492036",
"7. c #5C5862",
"8. c #A6AAA4",
"9. c #DFE8D6",
"0. c #5B5862",
"q. c #EFDF7D",
"w. c #ADA365",
"e. c #6B674D",
"r. c #5A5746",
"t. c #58503E",
"y. c #574936",
"u. c #877D61",
"i. c #C8C49D",
"p. c #F1F3C7",
"a. c #D5DABD",
"s. c #B8C0B3",
"d. c #B1BAB0",
"f. c #C7C49D",
"g. c #6B674E",
"h. c #F8E880",
"j. c #DCCE76",
"k. c #C0B46C",
"l. c #B8AA65",
"z. c #B39A52",
"x. c #AF8A40",
"c. c #C6A75A",
"v. c #E5D283",
"b. c #EBE49B",
"n. c #AAA883",
"m. c #686C6C",
"M. c #575D66",
"N. c #ECE49B",
"B. c #C5A75A",
"V. c #E7D87A",
"C. c #E6D374",
"Z. c #E1BF5D",
"A. c #DBAA45",
"S. c #E5BB53",
"D. c #F4D86F",
"F. c #14182E",
"G. c #E6D375",
"H. c #A89F63",
"J. c #898055",
"K. c #867548",
"L. c #83693B",
"P. c #A78F4E",
"I. c #DAC56C",
"U. c #D9C56C",
"Y. c #2B2A33",
"T. c #2A2831",
"R. c #6A6349",
"E. c #BFB36A",
"W. c #BFB26A",
"Q. c #282630",
"!. c #423932",
"~. c #504233",
"^. c #353031",
"/. c #1B1D2F",
"(. c #221A30",
"). c #341D33",
"_. c #664A45",
"`. c #95835A",
"'. c #AFA566",
"]. c #64614B",
"[. c #654A45",
"{. c #504333",
"}. c #806537",
"|. c #9F7B3A",
" X c #614F35",
".X c #23232F",
"XX c #5F2339",
"oX c #743741",
"OX c #743641",
"+X c #24232F",
"@X c #564936",
"#X c #292B36",
"$X c #7E7854",
"%X c #D2C573",
"&X c #836A3B",
"*X c #DCAB45",
"=X c #2B2B33",
"-X c #202332",
";X c #4F4D43",
":X c #584F3E",
">X c #B7AA65",
",X c #161A2F",
"<X c #2C2D36",
"1X c #E6D475",
"2X c #5A5645",
"3X c #5A5646",
"4X c #FBE77C",
"5X c #F2E07B",
"6X c #EADA7B",
"7X c #ECCA61",
"8X c #C0AA5D",
"9X c #948B59",
"0X c #EDCA61",
/* pixels */
"                                                                                                    ",
"                                                                                                    ",
"                                                                                                    ",
"                                                                                                    ",
"                                                                                                    ",
"                                                                                                    ",
"                                                                                                    ",
"                                                                                                    ",
"                                                                                                    ",
"                                                                                                    ",
"                                                                                                    ",
"                                                                                                    ",
"                                                                                                    ",
"                                                                                                    ",
"                                                                                                    ",
"                                                                                                    ",
"                                                                                                    ",
"                                                                                                    ",
"                  . X o o o X .                                     . X o o o X .                   ",
"                  O + @ @ @ + O                                     O + @ @ @ + O                   ",
"                  # $ % % % $ #                                     # $ % % % & #                   ",
"            . O # * = - ; : > , < < < < < < < < < < < < < < < < < < , 1 : ; 2 3 * # O .             ",
"            X + $ 4 5 6 7 8 9 > 0 0 0 0 0 0 0 0 0 0 0 0 0 0 0 0 0 0 1 9 q 7 6 w 3 $ + X             ",
"            o @ % e r t y u i p a a a a a a a a a a a a a a a a a a p i s d f g h j k o             ",
"            o @ % e r t y u l z x x x x x x x x x x x x x x x x x x z l s d f g h j k o             ",
"            o @ % e r t y u c v b b b b b b b b b b b b b b b b b b n c s d f g h j k o             ",
"            o @ % m M N B V C Z A A A A A A A A A A A A A A A A A A Z C V B N M S j k o             ",
"            o @ % D F G H J K L P P P P P P P P P P P P P P P P P P L I J H U Y D j k o             ",
"            o @ % T R E W Q ! ~ ^ ^ ^ ^ ^ ^ ^ ^ ^ ^ ^ ^ ^ ^ ^ ^ ^ ^ ~ ! Q W / ( T j k o             ",
"            o @ % ) _ ` ' ] [ { } } } } } } } } } } } } } } } } } } { [ ] ' ` _ ) j k o             ",
"            o @ % |  ...X.o.O.+.@.@.@.@.@.@.@.@.@.@.@.@.@.@.@.@.@.@.+.#.$.X...%.&.j k o             ",
"            o @ % e r t y u *.=.-.-.-.;.:.=.=.=.=.=.=.=.=.:.;.-.-.-.=.*.s d f g h j k o             ",
"            o @ % e r t y u *.=.-.-.-.:.>.*.*.*.*.*.*.*.*.>.:.-.-.-.=.*.s d f g h j k o             ",
"            o @ % e r t y u c n b b b ,.<.1.1.1.1.1.1.1.1.<.,.b b b n c s d f g h j k o             ",
"            o @ % e r t y u l z 2.2.2.3.4.5.5.5.5.5.5.5.5.4.3.2.2.2.6.l s d f g h j k o             ",
"            o @ % e r t y u i p a a a 7.8.9.9.9.9.9.9.9.9.8.0.a a a p i s d f g h j k o             ",
"            o @ % e r q.w.e.e e r.t.y.u.i.p.a.s.d.d.s.a.p.f.u.y.t.r.e e g.w.q.g h j k o             ",
"            o @ % e r h.j.k.r r l.z.x.c.v.b.n.m.M.M.m.n.N.v.B.x.z.l.r r k.j.h.g h j k o             ",
"            o @ % - 6 V.V.V.V.V.C.Z.A.S.D.t y u F.F.s d f D.S.A.Z.G.V.V.V.V.V.H.- j k o             ",
"            o @ % ; 7 y y y y y J.K.L.P.I.t y u F.F.s d f U.P.L.K.J.y y y y y 7 ; j k o             ",
"            o @ % : 8 u u u u u u Y.T.R.E.t y u F.F.s d f W.R.T.Y.u u u u u u 8 : j k o             ",
"            o @ % Q.!.~.^./.(.).*.*.*._.`.'.y ].e e ].d '.`.[.*.*.*.).(./.^.{.!.Q.j k o             ",
"            o @ % !.}.|. X.X).XX=.=.=.oX[.].d '.r r '.y ].[.OX=.=.=.XX).+X X|.}.!.j k o             ",
"            o @ % @Xx.A.L.T.c n b b b n c #X$X%XV.V.%X$X#Xc n b b b n c T.&X*Xx.@Xj k o             ",
"            o @ % t.z.Z.K.=Xl 6.2.2.2.6.l -X;X$Xy y $X;X-Xl z 2.2.2.6.l =XK.Z.z.:Xj k o             ",
"            o @ % r.>XG.J.u i p a a a p i ,X-X#Xu u #X-X,Xi p a a a p i <XJ.1X>X2Xj k o             ",
"            o @ % e r q.w.g.e e e e e e e e e e e e e e e e e e e e e e g.w.q.g h j k o             ",
"            o @ % e r h.j.k.r r r r r r r r r r r r r r r r r r r r r r k.j.h.g h j k o             ",
"            o @ % 3X>X4X5X6XV.V.V.V.V.V.V.V.V.V.V.V.V.V.V.V.V.V.V.V.V.V.6X5X4X>X2Xj k o             ",
"            o @ % t.z.7X8X9Xy y y y y y y y y y y y y y y y y y y y y y 9X8X0Xz.:Xj k o             "
};
