/* XPM */
static char *result[] = {
/* columns rows colors chars-per-pixel */
"50 50 114 2 ",
"   c #C8D45D",
".  c #8B954D",
"X  c #6C7345",
"o  c #2D3234",
"O  c #14182E",
"+  c #4C533D",
"@  c #ABB655",
"#  c #C6D25C",
"$  c #BFCA5B",
"%  c #B8C359",
"&  c #B4BF58",
"*  c #7F8E51",
"=  c #63754E",
"-  c #2D4347",
";  c #172F44",
":  c #485C4A",
">  c #9BA855",
",  c #BBC75A",
"<  c #C2CE5C",
"1  c #A1AB53",
"2  c #848D4B",
"3  c #757E47",
"4  c #587B5E",
"5  c #497B6A",
"6  c #2B7981",
"7  c #1F788A",
"8  c #3A7975",
"9  c #677C52",
"0  c #939D4F",
"q  c #B0BB57",
"w  c #51583E",
"e  c #373D37",
"r  c #32686A",
"t  c #2E7F85",
"y  c #29AFBA",
"u  c #28C1D0",
"i  c #2C97A0",
"p  c #345050",
"a  c #6B7345",
"s  c #9EA852",
"d  c #181C2F",
"f  c #1D5F71",
"g  c #218393",
"h  c #28CAD8",
"j  c #2CE5F3",
"k  c #25A6B6",
"l  c #1A3C4E",
"z  c #383E37",
"x  c #575E40",
"c  c #959F50",
"v  c #388F9C",
"b  c #47A9B3",
"n  c #64DCDF",
"m  c #6DEEF1",
"M  c #50E2F1",
"N  c #33D5F1",
"B  c #24CFF1",
"V  c #1DCCF1",
"C  c #1DAAC9",
"Z  c #1C839C",
"A  c #1C7086",
"S  c #447264",
"D  c #6B8458",
"F  c #5BBDC2",
"G  c #83E4E2",
"H  c #8EF2EE",
"J  c #62DFEF",
"K  c #36CCEF",
"L  c #20C2EF",
"P  c #15BDEF",
"I  c #19ABD2",
"U  c #1D96B3",
"Y  c #1F8CA3",
"T  c #3C7E77",
"R  c #56785C",
"E  c #C1F5E8",
"W  c #D1F8EA",
"Q  c #87D8EA",
"!  c #3DB8EA",
"~  c #18A8EB",
"^  c #06A0EB",
"/  c #11AEE5",
"(  c #1DBDDF",
")  c #23C5DC",
"_  c #2A939E",
"`  c #2C5E64",
"'  c #E3F7E8",
"]  c #90D3E8",
"[  c #3EB0E9",
"{  c #159EE9",
"}  c #0095E9",
"|  c #0EAFED",
" . c #25DBF3",
".. c #27C1D0",
"X. c #239CAD",
"o. c #1B5467",
"O. c #5CBDE9",
"+. c #27A6E9",
"@. c #0D9BE9",
"#. c #119CE9",
"$. c #0697E9",
"%. c #0296E9",
"&. c #15ACDC",
"*. c #21A8BF",
"=. c #33898A",
"-. c #416B5F",
";. c #31686A",
":. c #6B8557",
">. c #1A5469",
",. c #4E6750",
"<. c #809253",
"1. c #7F884A",
"2. c #A7B154",
"3. c #B9C459",
/* pixels */
"                                                                                                    ",
"                                                                                                    ",
"                                                                                                    ",
"                                                                                                    ",
"                                                                                                    ",
"                                                                                                    ",
"                                                                                                    ",
"                                                                                                    ",
"                                                                                                    ",
"                                                                                                    ",
"                                                                                                    ",
"                                                                                                    ",
"                                    . X o O O O O O O O O + . @                                     ",
"                                    . X o O O O O O O O O + . @                                     ",
"                            # $ % & * = - ; ; ; ; ; ; ; ; : * > % , < #                             ",
"                            $ 1 2 3 4 5 6 7 7 7 7 7 7 7 7 8 4 9 2 0 q $                             ",
"                            % 2 w e r t y u u u u u u u u i r p w a s %                             ",
"                            & 3 e d f g h j j j j j j j j k f l z x c &                             ",
"                        . . * 4 r f v b n m M N B V V V V C Z A r S D * .                           ",
"                        X X = 5 t g b F G H J K L P P P P I U Y t T R = X                           ",
"                        o o - 6 y h n G E W Q ! ~ ^ ^ ^ ^ / ( ) y _ ` - o                           ",
"                        O O ; 7 u j m H W ' ] [ { } } } } | V  ...X.o.; O                           ",
"                        O O ; 7 u j M J Q ] O.+.@.} } } } | V  ...X.o.; O                           ",
"                        O O ; 7 u j N K ! [ +.#.$.} } } } | V  ...X.o.; O                           ",
"                        O O ; 7 u j B L ~ { @.$.%.} } } } | V  ...X.o.; O                           ",
"                        O O ; 7 u j V P ^ } } } } } } } } | V  ...X.o.; O                           ",
"                        O O ; 7 u j V P ^ } } } } } } } } | V  ...X.o.; O                           ",
"                        O O ; 7 u j V P ^ } } } } } } } } | V  ...X.o.; O                           ",
"                        O O ; 7 u j V P ^ } } } } } } } } | V  ...X.o.; O                           ",
"                        + + : 8 i k C I / | | | | | | | | &.C *.i =.-.: +                           ",
"                        . . * 4 r f Z U ( V V V V V V V V C Z A ;.S :.* .                           ",
"                        @ @ > 9 p l A Y )  . . . . . . . .*.A >.p ,.<.> @                           ",
"                            % 2 w z r t y ................i ;.p w a s %                             ",
"                            , 0 a x S T _ X.X.X.X.X.X.X.X.=.S ,.a 1.2.,                             ",
"                            < q s c D R ` o.o.o.o.o.o.o.o.-.:.<.s 2.3.<                             ",
"                            # $ % & * = - ; ; ; ; ; ; ; ; : * > % , < #                             ",
"                                    . X o O O O O O O O O + . @                                     ",
"                                                                                                    ",
"                                                                                                    ",
"                                                                                                    ",
"                                                                                                    ",
"                                                                                                    ",
"                                                                                                    ",
"                                                                                                    ",
"                                                                                                    ",
"                                                                                                    ",
"                                                                                                    ",
"                                                                                                    ",
"                                                                                                    ",
"                                                                                                    "
};
