/* XPM */
static char *db00b9ad67da4f8d9ab6958cdac8270cSDn2p8mEVi5AWPnI[] = {
/* columns rows colors chars-per-pixel */
"50 50 191 2 ",
"   c #14182E",
".  c #181B2F",
"X  c #1C1D33",
"o  c #211E32",
"O  c #1F2331",
"+  c #1F243C",
"@  c #222334",
"#  c #262B33",
"$  c #2B2A3A",
"%  c #292838",
"&  c #342638",
"*  c #352939",
"=  c #392C3A",
"-  c #2D3335",
";  c #373C37",
":  c #38393A",
">  c #462D3E",
",  c #47313E",
"<  c #4B343E",
"1  c #3C4239",
"2  c #52593E",
"3  c #272C46",
"4  c #2D2D43",
"5  c #2C304C",
"6  c #2E3346",
"7  c #34334A",
"8  c #373646",
"9  c #233C52",
"0  c #343855",
"q  c #3A3F5E",
"w  c #363A56",
"e  c #302D42",
"r  c #483D47",
"t  c #473644",
"y  c #593642",
"u  c #5C3C49",
"i  c #553842",
"p  c #413E54",
"a  c #6C3E49",
"s  c #633B46",
"d  c #3F4260",
"f  c #36697E",
"g  c #474748",
"h  c #51444C",
"j  c #514949",
"k  c #5B4449",
"l  c #5A5847",
"z  c #43445E",
"x  c #4B495A",
"c  c #574D5C",
"v  c #68444A",
"b  c #74434D",
"n  c #7C4B4E",
"m  c #744F4B",
"M  c #685746",
"N  c #654B56",
"B  c #7E4651",
"V  c #68565A",
"C  c #7A5659",
"Z  c #72585D",
"A  c #596141",
"S  c #606742",
"D  c #676E44",
"F  c #6D6C4B",
"G  c #6A6947",
"H  c #6B7345",
"J  c #747D47",
"K  c #72704F",
"L  c #7B7C4D",
"P  c #78635D",
"I  c #787153",
"U  c #4B4A64",
"Y  c #434561",
"T  c #524F66",
"R  c #4D546B",
"E  c #565167",
"W  c #585165",
"Q  c #5D566A",
"!  c #685967",
"~  c #735A63",
"^  c #785E69",
"/  c #56687E",
"(  c #796264",
")  c #676A7A",
"_  c #746471",
"`  c #7B6A74",
"'  c #844C54",
"]  c #834B56",
"[  c #89565A",
"{  c #96585B",
"}  c #99605F",
"|  c #81715C",
" . c #A9625D",
".. c #B3655F",
"X. c #945660",
"o. c #8A5965",
"O. c #9A6666",
"+. c #8F7468",
"@. c #8A7263",
"#. c #94786A",
"$. c #93746C",
"%. c #846F77",
"&. c #897277",
"*. c #9C7B72",
"=. c #957B7D",
"-. c #9A7E7D",
";. c #8B6B6D",
":. c #A66665",
">. c #BD6C63",
",. c #AE716C",
"<. c #BB7A6F",
"1. c #A57872",
"2. c #B77A73",
"3. c #C5756A",
"4. c #C57F73",
"5. c #7B8449",
"6. c #838B4C",
"7. c #8C964D",
"8. c #919B4F",
"9. c #898E50",
"0. c #9AA451",
"q. c #9EA852",
"w. c #97A052",
"e. c #A1AC53",
"r. c #ABB555",
"t. c #AEB956",
"y. c #A5B054",
"u. c #B3BE58",
"i. c #9C807F",
"p. c #A5837A",
"a. c #AA857A",
"s. c #B78979",
"d. c #BA907F",
"f. c #C4877A",
"g. c #D38877",
"h. c #D28D7B",
"j. c #D68B7A",
"k. c #DA927F",
"l. c #BBC65A",
"z. c #BECA5A",
"x. c #C8D45D",
"c. c #C6D25C",
"v. c #C3CF5C",
"b. c #55738B",
"n. c #857984",
"m. c #AC7F87",
"M. c #628096",
"N. c #4996AA",
"B. c #5B91A6",
"V. c #6FB1C3",
"C. c #998282",
"Z. c #878693",
"A. c #908691",
"S. c #A9848A",
"D. c #B08E86",
"F. c #BB9386",
"G. c #AE8991",
"H. c #B2ABB4",
"J. c #8FA4B3",
"K. c #C68680",
"L. c #CC9E87",
"P. c #C69A8A",
"I. c #D99F89",
"U. c #D29381",
"Y. c #E39C86",
"T. c #CCA08F",
"R. c #D7A58E",
"E. c #DDAA92",
"W. c #D3A592",
"Q. c #E5A38C",
"!. c #E9A48C",
"~. c #EDAA91",
"^. c #E6AD94",
"/. c #E7B195",
"(. c #E8B196",
"). c #EBB499",
"_. c #E5B09B",
"`. c #F3BA9B",
"'. c #FABC9C",
"]. c #F3B296",
"[. c #F0AE93",
"{. c #CDAAAB",
"}. c #D0B7B4",
"|. c #E2B6A1",
" X c #FFC2A1",
".X c #BBB8C1",
"XX c #9DC4D2",
"oX c #DAD0D5",
"OX c #D0C7CA",
"+X c #CBD8E1",
"@X c #DFE0E8",
/* pixels */
"x.x.x.x.x.x.x.x.x.x.x.x.x.x.x.x.x.x.x.x.x.x.x.x.x.x.x.x.x.x.x.x.x.x.x.x.x.x.x.x.x.x.x.x.x.x.x.x.x.x.",
"x.x.x.x.x.x.x.x.x.x.x.x.x.x.x.x.x.x.x.x.x.x.x.x.x.x.x.x.x.x.x.x.x.x.x.x.x.x.x.x.x.x.x.x.x.x.x.x.x.x.",
"x.x.x.x.x.x.x.x.x.x.x.x.x.x.x.t.J                               1 J t.x.x.x.x.x.x.x.x.x.x.x.x.x.x.x.",
"x.x.x.x.x.x.x.x.x.x.x.x.x.x.x.t.J                               1 J t.x.x.x.x.x.x.x.x.x.x.x.x.x.x.x.",
"x.x.x.x.x.x.x.x.x.x.x.x.z.t.0.6.A + + + + + + + + + + + + + + + 8 A 6.0.t.x.x.x.x.x.x.x.x.x.x.x.x.x.",
"x.x.x.x.x.x.x.x.x.x.x.x.u.8.H l g 5 5 5 5 5 5 5 5 5 5 5 5 5 5 5 8 g l H 8.x.x.x.x.x.x.x.x.x.x.x.x.x.",
"x.x.x.x.x.x.x.x.x.x.x.x.r.J 1 @ 4 q q q q q q q q q q q q q q q 0 4 @ 1 J x.x.x.x.x.x.x.x.x.x.x.x.x.",
"x.x.x.x.x.x.x.x.x.u.8.H l g 8 5 0 q q q q q q q q q q q q q q q w 0 5 8 g H 8.u.x.x.x.x.x.x.x.x.x.x.",
"x.x.x.x.x.x.x.x.x.e.J 1 $ 6 0 q q q q q q q q q q q q q q q q q q q q 0 6 1 J e.x.x.x.x.x.x.x.x.x.x.",
"x.x.x.x.x.x.x.x.x.e.D - X 3 0 q q q q q q q q q q q q q q q q q q q q 0 3 - D e.x.x.x.x.x.x.x.x.x.x.",
"x.x.x.x.x.x.x.x.x.e.D - X 3 0 q q q q q q q q q q q q q q q q q q q q 0 3 - D e.x.x.x.x.x.x.x.x.x.x.",
"x.x.x.x.x.x.x.x.x.e.D - X 3 0 q q q q q q q q q q q q q q q q q q q q 0 3 - D e.x.x.x.x.x.x.x.x.x.x.",
"x.x.x.x.x.x.x.x.x.e.D - X 3 0 d U Q U Y q q q q q q q q q Y U Q E U d 0 3 - D e.x.x.x.x.x.x.x.x.x.x.",
"x.x.x.x.x.x.x.x.x.e.D - X 3 0 U ! =._ E q q q q q q q q q E _ =.&.! U 0 3 - D e.x.x.x.x.x.x.x.x.x.x.",
"x.x.x.x.x.x.x.x.x.e.D - X 3 0 T %.T.-.! q q q q q q q q q ! -.T.F.%.T 0 3 - D e.x.x.x.x.x.x.x.x.x.x.",
"x.x.x.x.x.x.x.x.x.e.D - X 3 0 E =.).F.%.E E E E E E E E E %.F.).W.=.E 0 3 - D e.x.x.x.x.x.x.x.x.x.x.",
"x.x.x.x.x.x.x.x.x.e.D - X 3 0 E =.`.W.D.=.=.=.=.=.=.=.=.=.D.W.`.W.=.E 0 3 - D e.x.x.x.x.x.x.x.x.x.x.",
"x.x.x.x.x.x.x.z.l.w.F : e 7 w T &.).).).).`.'. X X X X`.).).).).P.&.T w 7 : F w.l.z.v.x.x.x.x.x.x.x.",
"x.x.x.x.x.x.x.0.6.L I P Z c z U ! p.p.p.a.P.^. X X X XP.a.p.p.p.&.! U z c P I L 6.0.u.x.x.x.x.x.x.x.",
"x.x.x.x.x.x.x.5.2 l @.s.a.` T z x V V V ! *.T. X X X X*.! V V V c x z T ` s.@.l 2 5.y.x.x.x.x.x.x.x.",
"x.x.x.x.x.x.x.S # r $.E.E.C.Q q w 7 7 4 7 ( F. X X X X( 7 4 7 7 w w q Q C.E.$.r # S 0.x.x.x.x.x.x.x.",
"x.x.x.x.x.x.x.S # r $.E.E.i.Q z W ~ c 8 e ( F. X X X X( e 8 c ~ ~ W z Q C.E.$.r # S 0.x.x.x.x.x.x.x.",
"x.x.x.x.x.x.x.S # r $.E.E.i.Q U _ a.( r $ Z F. X X X XZ % r ( a.p._ U Q C.E.$.r # S 0.x.x.x.x.x.x.x.",
"x.x.x.x.x.x.x.S # r $.E.E.-.Q W =./.*.h @ Z d. X X X XZ @ h *./.W.=.W Q -.R.$.r # S 0.x.x.x.x.x.x.x.",
"x.x.x.x.x.x.x.6.A G | p.1.;.~ ^ a./.*.h @ N 1.!.!.!.!.N @ h *.(.E.a.^ ~ ;.p.| G A 6.r.x.x.x.x.x.x.x.",
"x.x.x.x.x.x.x.e.8.6.I V V C [ :.f./.*.h o k O.g.g.g.g.k X h *.(.^.f.:.[ C V I 6.8.e.l.x.x.x.x.x.x.x.",
"x.x.x.x.x.x.x.c.c.q.D - * v { 3.k./.*.h X i [ >.>.>.>.i X h *.(.[.k.3.{ v - D q.c.c.c.x.x.x.x.x.x.x.",
"x.x.x.x.x.x.x.x.x.e.D - o * , v { g.f.s.a.d.U.Q.Q.Q.Q.d.a.s.f.g.<.{ v , * - D e.x.x.x.x.x.x.x.x.x.x.",
"x.x.x.x.x.x.x.x.x.e.D -   X X * v 3.h.Q.`.`.'.'.'.'.'.`.`.Q.h.3.{ v * X X - D e.x.x.x.x.x.x.x.x.x.x.",
"x.x.x.x.x.x.x.t.q.9.K l h x x c Z  .<.U.Q.Q.~.~.~.~.~.Q.Q.U.<. .[ Z c x x l K 9.q.t.l.x.x.x.x.x.x.x.",
"x.x.x.x.x.x.x.7.H F | #.-.C.A.Z.%.' } ,.4.f.g.k.k.k.k.f.4.,.} ' [ %.Z.A.C.#.| F H 7.t.x.x.x.x.x.x.x.",
"x.x.x.x.x.x.x.H ; j +.L.|.}.OX.XA.s b ' { :.>.3.3.3.3.:.{ ' b s ~ A..XOX}.L.+.j ; H q.x.x.x.x.x.x.x.",
"x.x.x.x.l.t.e.F j V 1.I._.{.H.H.n.y a B { :.2.K.K.K.K.:.{ B a y N n.H.H.{.I.1.V j F 9.e.t.l.x.x.x.x.",
"x.x.x.x.r.7.H | +.1.s.h.K.S.n.) ! y a B { 1.F.{.{.{.{.1.{ B a y k ! ) n.S.h.s.1.+.| K H 7.r.x.x.x.x.",
"x.x.x.x.0.H ; #.L.I.h.4.:.C h 8 t y a B { m.{.oXoXoXoXm.{ B a y t t 7 r C 4.h.I.L.#.l ; H 0.x.x.x.x.",
"x.x.x.x.8.A O *.(.].Y.g.:.m * X & s b ] X.G.}.@X@X@X@XG.X.] b s < & X * m g.Y.]./.*.h O A 8.x.x.x.x.",
"x.x.x.x.8.A O *.(.'.~.Y.s.C = o = b B ' X.G.}.@X@X@X@XG.X.' B b y = o = C Y.~.'./.*.h O A 8.x.x.x.x.",
"x.x.x.x.0.H ; #.L.E.E.E.d.P 8 o > B ] ] o.S.H.+X+X+X+XS.o.] ] B s > o 8 P E.E.E.L.#.l ; H 0.x.x.x.x.",
"x.x.x.x.r.7.H | +.$.$.$.( h % X & u N ! _ Z.J.XXXXXXXXZ._ ! N u > & X $ h $.$.$.+.| K H 7.r.x.x.x.x.",
"x.x.x.x.l.t.e.F j r r r 8 $ X . X * p R b.b.B.V.V.V.V.b./ R p * % o . X $ r r r j F 9.e.t.l.x.x.x.x.",
"x.x.x.x.x.x.x.H ; # # # @ O .   X % w R b.b.N.N.N.N.N.b.b.R w % o X   . O # # # ; H q.x.x.x.x.x.x.x.",
"x.x.x.x.x.x.x.7.H S S S 2 1 @ X * u N ^ ` ) / f f f f ) ` ^ N u , * X @ 1 S S S H 7.t.x.x.x.x.x.x.x.",
"x.x.x.x.x.x.x.t.q.0.0.0.6.2 - @ i { { O.O.~ x 9 9 9 9 ~ O.O.{ { b i @ - l 0.0.0.q.t.l.x.x.x.x.x.x.x.",
"x.x.x.x.x.x.x.x.x.x.x.x.r.J 1 * v ...... .n < O O O O n  .......{ v * 1 J x.x.x.x.x.x.x.x.x.x.x.x.x.",
"x.x.x.x.x.x.x.x.x.x.x.x.u.8.H l M n n n n m M A A A A m n n n n m M l H 8.x.x.x.x.x.x.x.x.x.x.x.x.x.",
"x.x.x.x.x.x.x.x.x.x.x.x.z.t.0.9.F , , , < M L 8.8.8.8.M < , , , k F 6.0.t.x.x.x.x.x.x.x.x.x.x.x.x.x.",
"x.x.x.x.x.x.x.x.x.x.x.x.x.x.x.t.J       O A 8.x.x.x.x.A O       1 J t.x.x.x.x.x.x.x.x.x.x.x.x.x.x.x.",
"x.x.x.x.x.x.x.x.x.x.x.x.x.x.x.t.J       O A 8.x.x.x.x.A O       1 J t.x.x.x.x.x.x.x.x.x.x.x.x.x.x.x.",
"x.x.x.x.x.x.x.x.x.x.x.x.x.x.x.x.x.x.x.x.x.x.x.x.x.x.x.x.x.x.x.x.x.x.x.x.x.x.x.x.x.x.x.x.x.x.x.x.x.x.",
"x.x.x.x.x.x.x.x.x.x.x.x.x.x.x.x.x.x.x.x.x.x.x.x.x.x.x.x.x.x.x.x.x.x.x.x.x.x.x.x.x.x.x.x.x.x.x.x.x.x."
};
