/* XPM */
static char *a49c68c0844e4dde83e13a8f3847881b84QcvDpOqK0Wbiur[] = {
/* columns rows colors chars-per-pixel */
"50 50 63 1 ",
"  c #C8D45D",
". c #A1A950",
"X c #8D944A",
"o c #909B4F",
"O c #495E40",
"+ c #243733",
"@ c #586342",
"# c #406648",
"$ c #2F5A41",
"% c #326146",
"& c #3A794F",
"* c #3B7D4F",
"= c #535438",
"- c #274144",
"; c #569C44",
": c #63AB3F",
"> c #2B4E3C",
", c #3F824D",
"< c #488C4A",
"1 c #3B583E",
"2 c #5AA143",
"3 c #6A7542",
"4 c #7A7F44",
"5 c #2E5547",
"6 c #364740",
"7 c #387550",
"8 c #44874B",
"9 c #377050",
"0 c #697043",
"q c #2D5148",
"w c #366C51",
"e c #4F6B50",
"r c #2D5242",
"t c #95AA5A",
"y c #202A34",
"u c #6E7F4D",
"i c #325F52",
"p c #2F5753",
"a c #454E3C",
"s c #305B53",
"d c #336452",
"f c #2A4849",
"g c #3A564A",
"h c #475541",
"j c #453737",
"k c #673A46",
"l c #3F2936",
"z c #443841",
"x c #392433",
"c c #9D5759",
"v c #8F4D57",
"b c #6D3F4A",
"n c #52333F",
"m c #8C4E54",
"M c #663C47",
"N c #2B1E2E",
"B c #603944",
"V c #452C39",
"C c #A35A5C",
"Z c #AE605E",
"A c #53323F",
"S c #7B444F",
"D c #6D6C41",
/* pixels */
"                                                  ",
"                  .XooO++++OoX..                  ",
"                 @#$%%&****&%$##@                 ",
"              =--*****;::::;*****-=               ",
"              =--*****;::::;*****-=               ",
"            .>***,<:::::::::::<<,**>>.            ",
"          ..1****2::::::::::::::2****1.           ",
"         3>>***;;::::::::::::::::;****>X          ",
"        45*****;;::::::::::::::::;*****-44        ",
"        45*****;;::::::::::::::::;*****-44        ",
"       .67*****88::::::::::::::::8*****966.       ",
"       0%********8;:::::::::::;;8*******%%0       ",
"       q&**********<<<2::::2<<**********&&q       ",
"     @@w**********************************w@      ",
"     @@w**********************************w@      ",
"    .ee************************************e.     ",
"    =rr************************************r=     ",
"   X-99************************************9-XX   ",
"   X-99************************************9-XX   ",
"   X-99************************************9-XX   ",
"   t9***************************************9tt   ",
"   y9***************************************9yy   ",
"   y9***************************************9yy   ",
"   y9***************************************9yy   ",
"   y9***************************************9yy   ",
"   y9***************************************9yy   ",
"   u9***************************************9uu   ",
"   X-99************************************9-XX   ",
"   X-ii************************************i-XX   ",
"   X-ii************************************i-XX   ",
"    =--i9***********999pppp99***********99i-=     ",
"    =--pp977******79ppppppppp977******79ppp-=     ",
"    .aapppssd****dspppppppppppssd****dsppppa.     ",
"     44fppppppppppppppppppppppppppppppppppf4      ",
"     44fppppppppppppppppppppppppppppppppppf4      ",
"       yppppppppppppppppppppppppppppppppppy       ",
"       X-ppppppppppppppppppppppppppppppp--X       ",
"        4fppppppppppppppppppppppppppppp-44        ",
"         0yyfppppppppppppppppppppppppfyX          ",
"         0yyfppppppppppppppppppppppppfyX          ",
"            4@g--fppppppppppppppf-g@@4            ",
"              .XXohyyyfppppfyyhhoX.               ",
"                 .jkllzyyyyzlkjj.                 ",
"                 xcvbbnmMmmnbvccx                 ",
"                 xcvbbnmMmmnbvccx                 ",
"                 NBMNNVCZCCVNMBBN                 ",
"                 .==  =mZmm= ===.                 ",
"                      4ASAA4                      ",
"                       DNDD                       ",
"                       DNDD                       "
};
